<svg width="18" height="18" viewBox="0 0 18 18" xmlns="http://www.w3.org/2000/svg" class="global-menu-features__search-icon" data-v-22ae94a0="" data-v-25d71f4b=""><path d="M18 16.763L16.742 18l-5.508-5.417c-1.273.881-2.66 1.322-4.164 1.322-1.966 0-3.636-.675-5.01-2.026C.687 10.53 0 8.886 0 6.953c0-1.934.687-3.576 2.06-4.927C3.434.676 5.104 0 7.07 0c1.966 0 3.636.675 5.01 2.026 1.373 1.35 2.06 2.993 2.06 4.927 0 1.677-.535 3.156-1.605 4.436L18 16.763zM3.166 10.791c1.1 1.053 2.4 1.579 3.904 1.579s2.797-.534 3.882-1.6c1.084-1.066 1.626-2.339 1.626-3.817 0-1.48-.542-2.752-1.626-3.818-1.085-1.066-2.378-1.6-3.882-1.6s-2.798.534-3.882 1.6-1.627 2.339-1.627 3.818c0 1.478.535 2.758 1.605 3.838z" fill-rule="evenodd" data-v-22ae94a0=""></path></svg>