<svg data-v-f9f7aac0="" xmlns="http://www.w3.org/2000/svg" width="24" height="24" viewBox="0 0 24 24"><path fill="currentColor" fill-rule="evenodd" d="M17.5 2C19.433 2 21 3.567 21 5.5S19.433 9 17.5 9c-1.022 0-1.942-.438-2.582-1.138l-5.502 2.871c.055.247.084.504.084.767 0 .368-.057.723-.162 1.057l5.291 3.368C15.253 15.351 16.085 15 17 15c1.933 0 3.5 1.567 3.5 3.5S18.933 22 17 22s-3.5-1.567-3.5-3.5c0-.368.057-.723.162-1.057L8.37 14.076C7.746 14.65 6.914 15 6 15c-1.933 0-3.5-1.567-3.5-3.5S4.067 8 6 8c1.022 0 1.942.438 2.582 1.138l5.503-2.87C14.029 6.02 14 5.764 14 5.5 14 3.567 15.567 2 17.5 2zM17 16.8c-.939 0-1.7.761-1.7 1.7s.761 1.7 1.7 1.7 1.7-.761 1.7-1.7-.761-1.7-1.7-1.7zm-11-7c-.939 0-1.7.761-1.7 1.7s.761 1.7 1.7 1.7 1.7-.761 1.7-1.7S6.939 9.8 6 9.8zm11.5-6c-.939 0-1.7.761-1.7 1.7s.761 1.7 1.7 1.7 1.7-.761 1.7-1.7-.761-1.7-1.7-1.7z"></path></svg>